PathFileType	4	(X/Y/Z)	/Users/itak/Documents/Research/Walk-IL/dataset/trc/00302_00010.trc
DataRate	CameraRate	NumFrames	NumMarkers	Units	OrigDataRate	OrigDataStartFrame	OrigNumFrames
100.000000	100.000000	4	55	mm	100.000000	246	395
Frame#	Time	RPSI			LPSI			L3			STRN			T10			C7			CLAV			RBAK			LBAK			LSHO			LUPA			LAEL			LAOL			LWPS			LFRA			LIFD			LHPS			LHTS			RSHO			RUPA			RAEL			RAOL			RWTS			RWPS			RFRA			RIFD			RHPS			RBHD			LFHD			RFHD			LBHD			LHIP			RHIP			RASI			LASI			LKNE			LTHI			LANK			LTIP			LTOE			LMT1			LMT5			LHEE			RKNE			RTHI			RTIP			RTOE			RMT1			RMT5			RHEE			LWTS			RHTS			RANK			*53			*54			
		X1	Y1	Z1	X2	Y2	Z2	X3	Y3	Z3	X4	Y4	Z4	X5	Y5	Z5	X6	Y6	Z6	X7	Y7	Z7	X8	Y8	Z8	X9	Y9	Z9	X10	Y10	Z10	X11	Y11	Z11	X12	Y12	Z12	X13	Y13	Z13	X14	Y14	Z14	X15	Y15	Z15	X16	Y16	Z16	X17	Y17	Z17	X18	Y18	Z18	X19	Y19	Z19	X20	Y20	Z20	X21	Y21	Z21	X22	Y22	Z22	X23	Y23	Z23	X24	Y24	Z24	X25	Y25	Z25	X26	Y26	Z26	X27	Y27	Z27	X28	Y28	Z28	X29	Y29	Z29	X30	Y30	Z30	X31	Y31	Z31	X32	Y32	Z32	X33	Y33	Z33	X34	Y34	Z34	X35	Y35	Z35	X36	Y36	Z36	X37	Y37	Z37	X38	Y38	Z38	X39	Y39	Z39	X40	Y40	Z40	X41	Y41	Z41	X42	Y42	Z42	X43	Y43	Z43	X44	Y44	Z44	X45	Y45	Z45	X46	Y46	Z46	X47	Y47	Z47	X48	Y48	Z48	X49	Y49	Z49	X50	Y50	Z50	X51	Y51	Z51	X52	Y52	Z52	X53	Y53	Z53	X54	Y54	Z54	X55	Y55	Z55	

247	2.46	411.8606872558594	992.822998046875	-273.1797180175781	238.7517700195312	975.7749633789062	-251.8655548095703	322.8290100097656	1057.196655273438	-277.4093017578125	283.8236694335938	1250.11669921875	-514.6913452148438	330.7361450195312	1168.1484375	-258.7802429199219	316.0108032226562	1416.063842773438	-281.7003784179688	292.66796875	1347.076782226562	-446.1007080078125	397.1631774902344	1273.932861328125	-255.3035888671875	214.9677886962891	1380.451538085938	-252.5050964355469	147.4438323974609	1395.991821289062	-332.880615234375	73.09864807128906	1283.21875	-293.82666015625	39.9090461730957	1083.228149414062	-301.3494567871094	112.4605331420898	1061.070678710938	-258.1312561035156	-8.589591026306152	855.2711181640625	-360.7329406738281	16.44175338745117	981.7056884765625	-320.025146484375	25.84514045715332	681.4745483398438	-419.3977355957031	-15.10641193389893	768.1105346679688	-370.4711303710938	13.48553371429443	770.4102172851562	-430.3425598144531	459.7346801757812	1398.526489257812	-376.1295166015625	524.7931518554688	1340.436401367188	-387.2750244140625	584.818115234375	1083.136352539062	-444.7510070800781	502.9886474609375	1061.012451171875	-403.3385620117188	532.7925415039062	898.257080078125	-603.8154907226562	609.8115234375	884.548583984375	-569.3250122070312	597.6553344726562	1025.126220703125	-487.0753173828125	542.2032470703125	725.8325805664062	-672.5567016601562	609.6962280273438	787.7853393554688	-628.7631225585938	390.0238342285156	1556.209594726562	-288.1072998046875	251.9064636230469	1644.578491210938	-423.4482421875	343.9703979492188	1640.7685546875	-436.5216674804688	244.8083953857422	1553.27197265625	-272.3442687988281	134.9210357666016	930.433349609375	-313.6314697265625	501.9964904785156	951.7675170898438	-389.8494262695312	416.6162414550781	957.8314819335938	-500.5401611328125	169.1012725830078	953.3593139648438	-456.0419616699219	106.3506317138672	498.8580322265625	-516.224365234375	104.5221939086914	632.2213745117188	-463.3872680664062	151.8363342285156	173.0111694335938	-211.2608032226562	116.0950622558594	325.9114074707031	-370.0408935546875	207.4411010742188	54.266357421875	-374.2109069824219	248.3354797363281	83.80503082275391	-312.9899291992188	139.4683532714844	93.3974609375	-303.1722412109375	211.1375427246094	201.4948577880859	-175.5565490722656	440.6472473144531	481.9681091308594	-466.0809631347656	484.0604248046875	746.3762817382812	-467.8910522460938	420.5133666992188	360.2743530273438	-482.7715148925781	320.4486694335938	38.45476150512695	-623.925537109375	288.8678283691406	38.28326034545898	-559.9496459960938	404.3488159179688	31.00697898864746	-538.9266357421875	356.3917541503906	38.46441650390625	-377.3065490722656	48.1104621887207	864.7748413085938	-406.1700134277344	554.6083374023438	800.74755859375	-671.4564819335938	399.001220703125	39.7543830871582	-433.9638061523438	nan	nan	nan	nan	nan	nan	
248	2.47	411.9804382324219	993.1358032226562	-275.8892517089844	238.8397216796875	976.0355834960938	-254.8040313720703	323.6607055664062	1057.746704101562	-280.1590881347656	283.8204040527344	1250.091064453125	-518.1002807617188	332.2545471191406	1168.72509765625	-262.2721252441406	317.215087890625	1416.490600585938	-285.5273742675781	292.9603271484375	1347.103393554688	-449.6622619628906	398.7571716308594	1274.562744140625	-259.4604187011719	216.3348846435547	1380.813842773438	-255.6897888183594	148.4804840087891	1396.190673828125	-335.6067810058594	74.36386108398438	1283.25048828125	-296.24462890625	41.59911346435547	1083.199829101562	-303.284912109375	114.5104293823242	1061.148071289062	-260.5251770019531	-6.907398223876953	855.3368530273438	-362.3573608398438	18.17655754089355	981.6594848632812	-321.7820434570312	26.67767715454102	681.71142578125	-421.9459838867188	-13.83974266052246	768.285888671875	-372.3962707519531	14.24035835266113	770.7492065429688	-432.5322570800781	460.3013000488281	1398.956176757812	-381.1009521484375	525.2168579101562	1340.77001953125	-393.0132446289062	584.3331909179688	1083.802001953125	-453.0801391601562	502.9767456054688	1061.415893554688	-410.9326477050781	530.6080322265625	901.1275024414062	-613.959716796875	607.8995971679688	886.8748168945312	-580.288330078125	596.7911376953125	1026.093505859375	-496.1665954589844	539.2026977539062	729.66650390625	-685.2005615234375	607.0750732421875	790.8358764648438	-640.9837036132812	390.9884338378906	1556.511962890625	-292.3168029785156	252.5942535400391	1644.840454101562	-427.3893127441406	344.6448364257812	1640.902587890625	-440.7289123535156	245.8355407714844	1553.76708984375	-276.1036071777344	135.2363891601562	930.8328857421875	-316.9977722167969	502.1065979003906	951.7979736328125	-392.5118408203125	416.8951721191406	957.8674926757812	-503.1858215332031	169.3574676513672	953.7274780273438	-459.0757751464844	106.5214920043945	500.3704833984375	-522.5618286132812	104.1231384277344	633.5079345703125	-468.6715393066406	152.1790161132812	166.4842529296875	-225.1781005859375	116.2398376464844	323.6974487304688	-380.0724792480469	205.5886993408203	54.87851715087891	-393.4508972167969	247.1088256835938	80.78870391845703	-331.451171875	138.6481475830078	90.96820068359375	-320.1570739746094	211.8009948730469	193.1626892089844	-188.6708679199219	441.2424011230469	481.9548034667969	-466.9911499023438	484.1143493652344	746.1318359375	-469.94677734375	420.8400573730469	360.106689453125	-483.4720153808594	320.4805603027344	38.45459747314453	-623.9354858398438	288.8655090332031	38.29001235961914	-559.9646606445312	404.3942565917969	30.99049377441406	-538.9353637695312	356.4411010742188	38.62677383422852	-377.3469848632812	49.11314010620117	864.9623413085938	-408.2967834472656	551.8073120117188	804.575927734375	-683.1339721679688	398.9705505371094	39.69319915771484	-433.9558715820312	nan	nan	nan	nan	nan	nan	
249	2.48	412.0227661132812	993.5091552734375	-278.5390319824219	238.8675537109375	976.3849487304688	-257.7431335449219	324.3692626953125	1058.40673828125	-282.9353942871094	283.8631591796875	1250.06298828125	-521.4480590820312	333.6329650878906	1169.28369140625	-265.7295532226562	318.2596130371094	1416.919067382812	-289.2622375488281	293.2393798828125	1347.12646484375	-453.1542663574219	400.1875305175781	1275.203857421875	-263.4370422363281	217.5599670410156	1381.158935546875	-258.8345031738281	149.357421875	1396.33837890625	-338.3756713867188	75.51753234863281	1283.206420898438	-298.7373962402344	43.22761154174805	1083.088500976562	-305.4524536132812	116.4573287963867	1061.175415039062	-263.0413208007812	-5.024024486541748	855.228515625	-364.167236328125	19.96185684204102	981.4991455078125	-323.7784423828125	27.95684814453125	681.71044921875	-424.3750915527344	-12.29050350189209	768.2752075195312	-374.4227294921875	15.40624332427979	770.8469848632812	-434.7485656738281	460.7799072265625	1399.376220703125	-385.8442687988281	525.570068359375	1341.099243164062	-398.4326477050781	583.7499389648438	1084.4384765625	-460.9293518066406	502.7917175292969	1061.81494140625	-418.1672058105469	528.3411865234375	904.0487670898438	-623.6609497070312	605.8579711914062	889.2056274414062	-590.7560424804688	595.833984375	1027.031494140625	-504.7687683105469	536.0184936523438	733.6043090820312	-697.4226684570312	604.2747192382812	793.8971557617188	-652.709228515625	391.8371276855469	1556.815673828125	-296.4147644042969	253.1883850097656	1645.1025390625	-431.2455749511719	345.2154541015625	1641.042602539062	-444.8278198242188	246.7505493164062	1554.255126953125	-279.7884216308594	135.4868927001953	931.2415771484375	-320.3489074707031	502.2237243652344	951.8421630859375	-395.0362548828125	417.1064453125	957.8958129882812	-505.750244140625	169.55712890625	954.0592651367188	-462.1185607910156	106.650146484375	501.6816101074219	-528.2479248046875	103.7736053466797	634.639892578125	-473.4345397949219	152.5114288330078	159.6859436035156	-238.9381103515625	116.4084548950195	321.2023010253906	-389.6463928222656	203.4732208251953	55.36595916748047	-412.26904296875	245.8017272949219	77.56895446777344	-349.6266479492188	137.6474761962891	88.43154144287109	-336.7808227539062	212.5343017578125	184.4394683837891	-201.7550201416016	441.84521484375	481.9656982421875	-468.0686645507812	484.2994384765625	745.91015625	-471.8005676269531	421.1266479492188	359.9308166503906	-484.3466796875	320.5195617675781	38.45425415039062	-623.9415893554688	288.8833618164062	38.31268310546875	-559.984619140625	404.4512023925781	30.95808982849121	-538.946044921875	356.5133666992188	38.82992935180664	-377.3963623046875	50.42122650146484	864.9556884765625	-410.4882202148438	548.894287109375	808.5034790039062	-694.3646240234375	398.968505859375	39.66212844848633	-433.9797668457031	nan	nan	nan	nan	nan	nan	
250	2.49	411.9872131347656	993.89501953125	-281.1179809570312	238.8259582519531	976.8016967773438	-260.6875305175781	324.951904296875	1059.140869140625	-285.7470397949219	283.9608459472656	1250.038452148438	-524.7363891601562	334.8497924804688	1169.817138671875	-269.1566162109375	319.1466979980469	1417.344116210938	-292.9075927734375	293.4990234375	1347.1552734375	-456.5844116210938	401.4374084472656	1275.848876953125	-267.2420654296875	218.6380920410156	1381.482788085938	-261.9491882324219	150.0716400146484	1396.438842773438	-341.1933288574219	76.56131744384766	1283.103149414062	-301.2957153320312	44.79625701904297	1082.9072265625	-307.82861328125	118.306640625	1061.167114257812	-265.6819152832031	-2.960283994674683	854.9573974609375	-366.1564636230469	21.79218482971191	981.2354736328125	-325.9966735839844	29.67105674743652	681.4911499023438	-426.6941528320312	-10.45476722717285	768.0821533203125	-376.5343322753906	16.96820259094238	770.714111328125	-436.9923095703125	461.1758422851562	1399.786010742188	-390.3565063476562	525.8582153320312	1341.421997070312	-403.5279541015625	583.0941772460938	1085.047607421875	-468.2899475097656	502.4663391113281	1062.207763671875	-425.0190734863281	525.9933471679688	907.0106811523438	-632.8948974609375	603.6956176757812	891.5184326171875	-600.7138061523438	594.7998657226562	1027.958740234375	-512.8681030273438	532.6419677734375	737.637451171875	-709.193359375	601.3002319335938	796.9684448242188	-663.9329833984375	392.5675964355469	1557.117797851562	-300.3976745605469	253.6931457519531	1645.36474609375	-435.0191040039062	345.6878967285156	1641.18798828125	-448.8157958984375	247.5387878417969	1554.732543945312	-283.4058837890625	135.6432189941406	931.66552734375	-323.6737060546875	502.3324584960938	951.8565063476562	-397.4273986816406	417.2924194335938	957.9134521484375	-508.2278442382812	169.7381744384766	954.36279296875	-465.1866760253906	106.7502059936523	502.7697448730469	-533.2661743164062	103.5657958984375	635.5718994140625	-477.6423645019531	152.8309020996094	152.6901092529297	-252.5089263916016	116.6122741699219	318.4722290039062	-398.7156372070312	201.1597900390625	55.75446319580078	-430.5799255371094	244.4507751464844	74.24257659912109	-367.4147644042969	136.4874877929688	85.84799957275391	-353.0031433105469	213.3203125	175.41796875	-214.7697296142578	442.37646484375	481.9772644042969	-469.3613586425781	484.5748291015625	745.6895141601562	-473.5157470703125	421.3351440429688	359.7482299804688	-485.4100341796875	320.5519409179688	38.44644927978516	-623.9514770507812	288.900390625	38.33327865600586	-560.0111083984375	404.5	30.9181022644043	-538.9556884765625	356.5794982910156	39.05970001220703	-377.4461364746094	52.01579666137695	864.7698974609375	-412.7519226074219	545.860107421875	812.5277709960938	-705.1281127929688	398.9766540527344	39.67559814453125	-434.03369140625	nan	nan	nan	nan	nan	nan	
